<svg width="92" height="29" viewBox="0 0 92 29" fill="none" xmlns="http://www.w3.org/2000/svg">
<path d="M0.0518741 22.696C0.0518741 26.402 2.70387 28.374 5.79787 28.374C8.58587 28.374 10.5919 26.708 11.4759 25.722V26.64C11.4759 28.068 11.8839 28.374 13.4139 28.374C14.7739 28.374 16.7799 28.068 17.5619 27.864V25.96H15.7259V15.556C15.7259 10.626 14.0599 8.688 8.85787 8.688C5.01587 8.688 1.61587 10.592 0.833874 11.272L1.88787 13.448C2.97587 12.938 5.04987 11.918 7.63387 11.918C10.5579 11.918 11.2039 13.04 11.2039 15.658V16.44C5.04987 16.474 0.0518741 18.378 0.0518741 22.696ZM7.97387 25.552C6.27387 25.552 5.11787 24.43 5.11787 22.22C5.11787 20.18 6.91987 18.514 11.2039 18.514V24.09C10.3199 24.872 8.95987 25.552 7.97387 25.552ZM23.5877 25.654L21.6157 25.96V28H30.4897V25.96L28.4497 25.654V13.278C29.4017 12.564 30.9997 11.612 32.5977 11.612C34.9437 11.612 35.4877 12.938 35.4877 16.304V25.688L33.6517 25.96V28H42.4237V25.96L40.3497 25.688V16.304C40.3497 10.864 39.0237 8.722 34.9097 8.722C32.1217 8.722 29.4017 10.15 27.9737 11.476L28.0077 10.66V9.334L27.1577 8.654H27.0557L21.4117 9.368V11.714L23.5877 12.326V25.654ZM52.5383 28.306C54.9863 28.306 57.7403 27.32 58.8963 26.436L58.2503 24.532C57.5363 24.838 56.1763 25.178 54.9523 25.178C53.3883 25.178 53.2183 24.906 53.2183 21.268V11.714H58.3863V9.096H53.1843L53.0483 4.098H50.3283C50.0563 5.05 49.5803 6.784 49.2063 7.634C48.9343 8.382 48.6283 8.858 48.2203 9.164C47.7103 9.402 46.7923 9.708 46.1463 9.946V11.714H48.3563V24.192C48.3563 27.116 49.7503 28.306 52.5383 28.306ZM66.7512 6.002H66.7852C68.7912 6.002 69.8792 4.778 69.8792 3.01C69.8792 1.65 69.0292 0.459998 67.0912 0.459998C65.2212 0.459998 64.0992 1.752 64.0992 3.452C64.0992 4.88 65.0512 6.002 66.7512 6.002ZM64.9492 25.654L62.5692 25.96V28H72.0552V25.96L69.7772 25.688V9.334L68.8252 8.654H68.7572L62.5352 9.402V11.68L64.9492 12.326V25.654ZM76.0503 18.718C76.0503 24.226 78.7703 28.374 84.7883 28.374C87.8823 28.374 90.4663 26.81 91.4183 25.79L90.6363 24.022C89.5823 24.702 87.9843 25.416 85.8763 25.416C83.0883 25.416 81.1503 22.832 81.1503 17.698C81.1843 12.768 82.8163 10.83 85.2303 10.83C86.1483 10.83 87.0663 11.034 87.2363 11.714L88.0863 15.454H91.0443L91.2483 9.64C90.1943 9.436 88.5283 8.62 85.7063 8.62C79.7223 8.62 76.0163 12.802 76.0503 18.718Z" fill="#A06056"/>
</svg>
